<svg id="Layer_1" data-name="Layer 1" xmlns="http://www.w3.org/2000/svg" viewBox="0 0 512 512"><defs><style>.cls-1{fill:#7347c1;}</style></defs><title>ps-outline</title><path class="cls-1" d="M307.34,0H115.2a64,64,0,0,0-64,64V448a64,64,0,0,0,64,64H396.8a64,64,0,0,0,64-64V153.6ZM411.49,140.8H358.4A38.44,38.44,0,0,1,320,102.4V49.08ZM435.2,448a38.44,38.44,0,0,1-38.4,38.4H115.2A38.44,38.44,0,0,1,76.8,448V64a38.44,38.44,0,0,1,38.4-38.4H294.4v76.8a64,64,0,0,0,64,64h76.8Z"/><path class="cls-1" d="M216.63,268.8c-14.59,0-29,.21-36.28.42-1,0-1.15.42-1.15,1.47V408.13c0,1.05.38,1.47,1.34,1.47h20.35c1,0,1.34-.42,1.34-1.68V360.07h11.9c28.22,0,54.66-12.7,54.66-46.18C268.61,289.46,254.26,268.8,216.63,268.8Zm-1.92,71.26c-8.06,0-10.94-.21-12.48-.42v-49.8c1.54-.21,6.91-.42,14.4-.42,18,0,27.83,8.65,27.83,25.5C244.47,336,229.88,340.06,214.71,340.06Z"/><path class="cls-1" d="M319.09,348c-13.53-6-15.87-8.6-15.87-13.4,0-3.8,2.34-9,11.18-9,9.38,0,18.58,1.27,25.07,5.28.9.6,1.62,0,1.62-1.2V313.28a2.87,2.87,0,0,0-1.08-2.6c-5-3.2-12.8-3.48-23.81-3.48-21.28,0-34.24,13.39-34.24,29.59,0,14.61,7.73,21.83,26.31,30.23,13,5.8,15,8.8,15,14,0,4.4-2.88,9.59-11.18,9.59-9.38,0-19.84-1.88-29.22-8.48-.54-.4-1.26,0-1.26,1v18.41a2,2,0,0,0,1.08,2c7.58,5.2,19.64,6.06,29.19,6.06,19.84,0,33.72-11.38,33.72-31.39C345.6,363.8,337.67,356.4,319.09,348Z"/></svg>