<svg 
 xmlns="http://www.w3.org/2000/svg"
 xmlns:xlink="http://www.w3.org/1999/xlink"
 width="963px" height="343px">
<path fill-rule="evenodd"  opacity="0.302" fill="rgb(96, 10, 145)"
 d="M1.991,332.907 C1.991,332.907 121.618,346.363 236.260,288.056 C236.260,288.056 365.856,217.415 561.246,304.875 C561.246,304.875 694.830,374.395 882.245,284.692 C882.245,284.692 919.130,261.144 961.000,281.328 L961.000,341.877 L0.994,341.877 L1.991,332.907 Z"/>
<path fill-rule="evenodd"  opacity="0.102" fill="rgb(96, 10, 145)"
 d="M-0.000,61.108 C-0.000,61.108 329.000,521.891 960.000,-0.001 L960.000,342.999 L-0.000,342.999 L-0.000,61.108 Z"/>
<path fill-rule="evenodd"  opacity="0.102" fill="rgb(96, 10, 145)"
 d="M960.000,158.685 C960.000,158.685 430.000,431.706 -0.000,-0.001 L-0.000,342.999 L960.000,342.999 L960.000,158.685 Z"/>
<path fill-rule="evenodd"  opacity="0.2" fill="rgb(96, 10, 145)"
 d="M2.993,217.518 C2.993,217.518 89.084,223.125 219.221,173.780 C219.221,173.780 375.386,107.614 572.595,195.088 C572.595,195.088 795.831,287.048 962.006,178.265 L962.006,342.001 L0.991,342.001 L2.993,217.518 Z"/>
<path fill-rule="evenodd"  opacity="0.149" fill="rgb(96, 10, 145)"
 d="M0.997,150.499 C0.997,150.499 101.893,101.184 241.749,168.431 C241.749,168.431 395.591,251.370 530.452,194.209 C530.452,194.209 802.173,72.043 961.009,174.035 L961.009,341.033 L2.995,341.033 L0.997,150.499 Z"/>
<path fill-rule="evenodd"  opacity="0.102" fill="rgb(96, 10, 145)"
 d="M0.997,122.117 C0.997,122.117 155.837,73.878 297.690,184.941 C297.690,184.941 439.544,291.517 601.377,187.185 C601.377,187.185 771.201,48.075 963.003,116.508 L963.003,342.001 L1.996,342.001 L0.997,122.117 Z"/>
</svg>